# xmcd
#
# Track frame offsets:
#	150
#	13641
#	27203
#	39520
#	51622
#	65205
#	78243
#	89848
#	102613
#	116309
#	127794
#	139878
#	152537
#	164762
#	177996
#	188641
#	199970
#	213317
#	225700
#	237962
#
# Disc length: 3345 seconds
#
# Revision: 0
# Processed by: cddbd v1.5.2PL0 Copyright (c) Steve Scherf et al.
# Submitted via: EasyCDDAExtractor 2010.6.0.0
#
DISCID=1d0d0f14
DTITLE=Various Artist - Arizona Cowboy
DYEAR=1900
DGENRE=
TTITLE0=Allen Rex - Feudin' And Fightin'
TTITLE1=Allen Rex - Take It Back And Change It For A Boy
TTITLE2=Allen Rex - I Ain't Gonna Cry No More
TTITLE3=Allen Rex - You Drifted
TTITLE4=Allen Rex - Ten More Miles To Go
TTITLE5=Allen Rex - Sentimental Fool
TTITLE6=Allen Rex - Mister And Mississippi
TTITLE7=Allen Rex - Albuquerque Polka
TTITLE8=Allen Rex - Naggin'
TTITLE9=Allen Rex - Too Lee Rollum
TTITLE10=Allen Rex - Honolulu Boogie
TTITLE11=Allen Rex - Little Brown Shoes
TTITLE12=Allen Rex - Blues In My Mind
TTITLE13=Allen Rex - Yodelin' Crazy
TTITLE14=Allen Rex - Don't Cha
TTITLE15=Allen Rex - Hot Time In New Orleans Tonight
TTITLE16=Allen Rex and Judy Perkins - Over Three Hills
TTITLE17=Allen Rex - I'm So Alone With The Crowd
TTITLE18=Allen Rex - Peal From A Faded Rose
TTITLE19=Allen Rex - I Gotta Have My Baby Back
EXTD=
EXTT0=
EXTT1=
EXTT2=
EXTT3=
EXTT4=
EXTT5=
EXTT6=
EXTT7=
EXTT8=
EXTT9=
EXTT10=
EXTT11=
EXTT12=
EXTT13=
EXTT14=
EXTT15=
EXTT16=
EXTT17=
EXTT18=
EXTT19=
PLAYORDER=
